<?xml version="1.0" encoding="UTF-8" standalone="no"?>
<!-- Created with Inkscape (http://www.inkscape.org/) -->

<svg
   width="426.11597"
   height="369.02725"
   viewBox="0 0 426.11597 369.02725"
   version="1.1"
   id="svg1"
   inkscape:version="1.4 (e7c3feb1, 2024-10-09)"
   sodipodi:docname="hexhashi.svg"
   xmlns:inkscape="http://www.inkscape.org/namespaces/inkscape"
   xmlns:sodipodi="http://sodipodi.sourceforge.net/DTD/sodipodi-0.dtd"
   xmlns:xlink="http://www.w3.org/1999/xlink"
   xmlns="http://www.w3.org/2000/svg"
   xmlns:svg="http://www.w3.org/2000/svg">
  <sodipodi:namedview
     id="namedview1"
     pagecolor="#ffffff"
     bordercolor="#666666"
     borderopacity="1.0"
     inkscape:showpageshadow="2"
     inkscape:pageopacity="0.0"
     inkscape:pagecheckerboard="0"
     inkscape:deskcolor="#d1d1d1"
     inkscape:document-units="px"
     inkscape:zoom="0.65934701"
     inkscape:cx="108.44062"
     inkscape:cy="266.93076"
     inkscape:window-width="1712"
     inkscape:window-height="1041"
     inkscape:window-x="0"
     inkscape:window-y="43"
     inkscape:window-maximized="1"
     inkscape:current-layer="layer1" />
  <defs
     id="defs1">
    <linearGradient
       id="linearGradient3"
       inkscape:collect="always">
      <stop
         style="stop-color:#07e878;stop-opacity:0.99617589;"
         offset="0"
         id="stop3" />
      <stop
         style="stop-color:#64baea;stop-opacity:0.30401531;"
         offset="1"
         id="stop4" />
    </linearGradient>
    <linearGradient
       inkscape:collect="always"
       xlink:href="#linearGradient3"
       id="linearGradient4"
       x1="211.70561"
       y1="250.5206"
       x2="579.54413"
       y2="659.04669"
       gradientUnits="userSpaceOnUse" />
  </defs>
  <g
     inkscape:label="Ebene 1"
     inkscape:groupmode="layer"
     id="layer1"
     transform="translate(-607.77113,-136.63171)">
    <path
       sodipodi:type="star"
       style="opacity:1;fill:url(#linearGradient4);stroke:#000000;stroke-width:21.3832;stroke-dasharray:none"
       id="path2"
       inkscape:flatsided="true"
       sodipodi:sides="6"
       sodipodi:cx="395.62485"
       sodipodi:cy="454.78369"
       sodipodi:r1="262.51743"
       sodipodi:r2="229.03734"
       sodipodi:arg1="-9.9579833e-10"
       sodipodi:arg2="0.52359878"
       inkscape:rounded="0"
       inkscape:randomized="0"
       d="m 658.14227,454.78369 -131.25871,227.34676 -262.51743,0 -131.25871,-227.34676 131.25871,-227.34676 262.51743,0 z"
       transform="matrix(0.77514242,0,0,0.77514242,514.16352,-31.376794)" />
    <path
       style="fill:#000000;stroke-width:1.64522"
       d="m 742.19541,401.93346 c 0.22122,-14.70441 0.5914,-41.55789 0.82262,-59.6744 l 0.42042,-32.9391 -3.70893,12.85172 c -4.32558,14.98841 -10.5821,30.36477 -16.42056,40.35599 l -4.1327,7.07221 -5.39552,-7.89482 -5.39551,-7.89481 3.2595,-4.93567 c 1.79274,-2.71462 6.50667,-11.62843 10.47539,-19.80847 l 7.21587,-14.87278 5.66078,-19.67693 5.66075,-19.67692 -13.00525,-0.47784 -13.00525,-0.47785 v -8.15958 -8.15959 h 14.14582 14.14584 l -0.57274,-22.21143 -0.57272,-22.21142 9.25163,8.9e-4 9.25163,9.1e-4 -0.84752,22.21053 -0.84752,22.21052 h 10.10466 10.10467 v 8.14401 8.14403 l -8.97203,0.4934 -8.97202,0.49342 3.87593,9.51723 3.87594,9.51724 8.48886,11.63459 8.48888,11.63458 -4.43914,6.40568 c -5.89489,8.50634 -5.79782,8.55962 -14.5513,-7.99002 l -7.61423,-14.39571 0.44951,63.75282 0.44952,63.75283 -9.04873,10e-6 -9.04874,2e-5 z m 40.72842,-21.79758 v -48.53339 l 68.811,-10e-4 68.811,-0.001 -0.53419,42.36453 -0.53419,42.36453 -2.0218,3.52869 -2.02181,3.52871 -5.21591,1.81827 -5.2159,1.81829 h -15.17385 -15.17386 l -1.02932,-6.43708 c -0.56614,-3.54039 -1.41351,-7.4382 -1.88304,-8.66181 l -0.85372,-2.22474 15.24588,0.0244 15.24587,0.0244 0.44682,-31.67057 0.44683,-31.67056 H 851.1811 800.08854 l 0.46637,41.13182 0.46639,41.13185 -9.04873,-5.6e-4 -9.04874,-5.8e-4 z m 35.37233,4.93363 v -27.1462 l 32.49318,-0.001 32.49318,-10e-4 v 21.38512 21.38514 l -25.08967,0.005 -25.08968,0.005 v 5.75829 5.75828 h -7.4035 -7.40351 z m 49.35673,-5.75828 v -8.22612 h -17.27486 -17.27486 v 8.22612 8.22612 h 17.27486 17.27486 z m -57.82535,-71.56703 0.58014,-13.98464 h -1.10631 c -0.60847,0 -4.20111,2.11148 -7.98365,4.69218 -3.78252,2.5807 -8.44183,5.51395 -10.35401,6.51833 l -3.47668,1.82615 -5.20549,-6.47756 -5.20551,-6.47755 5.65253,-2.36176 c 7.88283,-3.29366 21.9892,-12.62764 29.80931,-19.7244 l 6.5809,-5.97217 -17.68964,0.41529 -17.68963,0.41529 10e-4,-8.22612 10e-4,-8.22613 22.62417,0.52409 22.62417,0.52409 2.87915,-4.89099 c 1.58353,-2.69006 2.87914,-5.78195 2.87914,-6.87089 v -1.97989 l -21.44458,0.58851 -21.44458,0.58851 -3.15335,-6.9922 -3.15335,-6.9922 14.31528,-0.017 c 28.13488,-0.0334 78.60418,-5.68093 95.0807,-10.63963 l 7.23675,-2.17795 5.16691,6.52374 5.16691,6.52376 -1.4565,1.34821 c -1.84311,1.7061 -27.37025,6.28622 -42.84993,7.68824 -13.98102,1.26626 -13.7869,1.15751 -18.18389,10.18829 l -3.45618,7.09852 39.33311,-0.51762 39.33312,-0.5176 7.7e-4,8.22612 7.9e-4,8.22612 -21.80154,-0.54819 -21.80155,-0.54819 3.89004,4.1451 3.89003,4.14509 10.91699,5.66056 c 6.00434,3.11331 14.98891,6.96205 19.96572,8.55278 4.9768,1.59072 9.29908,3.10446 9.60508,3.36386 0.306,0.2594 -1.41132,3.82923 -3.81626,7.93293 l -4.3726,7.46129 -9.34555,-4.12777 c -5.14004,-2.27028 -11.79398,-5.56975 -14.78655,-7.33214 -2.99256,-1.76238 -5.84255,-3.20434 -6.33329,-3.20434 -0.49075,0 -0.63351,6.66354 -0.31727,14.80784 l 0.57501,14.80786 -41.13061,-5.9e-4 -41.13061,-5.9e-4 z m 66.05147,-6.58113 v -7.40351 h -25.50098 -25.50098 v 7.40351 7.40351 h 25.50098 25.50098 z m -7.4901,-27.96881 -7.40351,-7.40351 h -12.09771 -12.0977 l -6.06662,7.40351 -6.06661,7.40351 h 25.56782 25.56784 z"
       id="path1" />
  </g>
</svg>
